# xmcd CD database file
# Copyright (C) 1995-1998 Ti Kan
#
# Track frame offsets:
#	182
#	17875
#	33035
#	48687
#	62390
#	83822
#	100247
#	116950
#	130770
#	141042
#
# Disc length: 2180 seconds
#
# Revision: 1
# Processed by: cddbd v1.4b41PL1 Copyright (c) Steve Scherf et al.
# Submitted via: CDex 1.30
#
DISCID=8108820a
DTITLE=JD Myers - Like A Train
DYEAR=1998
DGENRE=Country
TTITLE0=Cold Heart
TTITLE1=Doin' What I Did
TTITLE2=I'll Be Lovin' You
TTITLE3=(Marie's The Name) His Latest Flame
TTITLE4=Anything For You
TTITLE5=Wishin' And Waitin'
TTITLE6=They're Not Us
TTITLE7=Still Feelin' Blue
TTITLE8=When I Think About You
TTITLE9=If Love Was Like A Train
EXTD=\nYEAR: 1998  ID3G:   2
EXTT0=
EXTT1=
EXTT2=
EXTT3=
EXTT4=
EXTT5=
EXTT6=
EXTT7=
EXTT8=
EXTT9=
PLAYORDER=
